<svg xmlns="http://www.w3.org/2000/svg" width="64.529" height="43.991" viewBox="0 0 64.529 43.991">
  <g id="品牌认知" transform="translate(-67.837 -80.923)">
    <path id="路径_55" data-name="路径 55" d="M98.638,101.391l-16.7-.335a5.928,5.928,0,0,0-4.326,1.72L68.7,111.691a3.086,3.086,0,0,0,.087,4.362l20.022,20.022a3.086,3.086,0,0,0,4.362.087L112.4,116.927a3.086,3.086,0,0,0-.087-4.362l-9.28-9.28A6.424,6.424,0,0,0,98.638,101.391Z" transform="translate(0 -15.308)" fill="#2f9bff"/>
    <g id="组_24" data-name="组 24" transform="translate(76.544 80.923)">
      <path id="路径_56" data-name="路径 56" d="M142.347,80.923H121.826a7.58,7.58,0,0,0-5.36,2.22l-11.18,11.18a3.79,3.79,0,0,0,0,5.36L129.406,123.8a3.79,3.79,0,0,0,5.36,0l24.121-24.121a3.79,3.79,0,0,0,0-5.36l-11.18-11.18A7.58,7.58,0,0,0,142.347,80.923Z" transform="translate(-104.175 -80.923)" fill="rgba(136,186,255,0.3)"/>
    </g>
    <g id="组_25" data-name="组 25" transform="translate(88.375 80.923)">
      <path id="路径_57" data-name="路径 57" d="M169.627,80.924,153.547,97h32.161Z" transform="translate(-153.547 -80.924)" fill="rgba(183,213,255,0.3)"/>
    </g>
    <g id="组_26" data-name="组 26" transform="translate(88.375 80.923)">
      <path id="路径_58" data-name="路径 58" d="M153.547,97l16.081-16.08h-10.26a7.547,7.547,0,0,0-3.269.773Z" transform="translate(-153.547 -80.924)" fill="rgba(183,213,255,0.3)"/>
    </g>
    <g id="组_27" data-name="组 27" transform="translate(76.544 81.696)">
      <path id="路径_59" data-name="路径 59" d="M118.557,84.149a7.552,7.552,0,0,0-2.091,1.447l-11.18,11.18a3.778,3.778,0,0,0-1.11,2.68h11.83l2.551-15.307Z" transform="translate(-104.176 -84.149)" fill="rgba(183,213,255,0.3)"/>
    </g>
    <g id="组_28" data-name="组 28" transform="translate(104.455 80.923)">
      <path id="路径_60" data-name="路径 60" d="M234.184,81.7a7.547,7.547,0,0,0-3.269-.773h-10.26L236.735,97Z" transform="translate(-220.655 -80.923)" fill="rgba(183,213,255,0.3)"/>
    </g>
    <g id="组_29" data-name="组 29" transform="translate(117.984 81.696)">
      <path id="路径_61" data-name="路径 61" d="M279.666,99.457H291.5a3.778,3.778,0,0,0-1.11-2.68L279.206,85.6a7.549,7.549,0,0,0-2.091-1.447Z" transform="translate(-277.115 -84.15)" fill="rgba(183,213,255,0.3)"/>
    </g>
    <g id="组_30" data-name="组 30" transform="translate(88.375 97.004)">
      <path id="路径_62" data-name="路径 62" d="M185.708,148.031H153.547L168.7,175.812a3.781,3.781,0,0,0,1.854,0Z" transform="translate(-153.547 -148.031)" fill="rgba(183,213,255,0.3)"/>
    </g>
    <g id="组_31" data-name="组 31" transform="translate(105.382 97.004)">
      <path id="路径_63" data-name="路径 63" d="M239.675,148.031l-15.153,27.781a3.751,3.751,0,0,0,1.753-.981L250.4,150.711a3.778,3.778,0,0,0,1.11-2.68Z" transform="translate(-224.522 -148.031)" fill="rgba(183,213,255,0.3)"/>
    </g>
    <g id="组_32" data-name="组 32" transform="translate(99.446 95.372)">
      <rect id="矩形_1" data-name="矩形 1" width="10.876" height="3.263" rx="1.631" fill="#fff"/>
    </g>
    <g id="组_33" data-name="组 33" transform="translate(113.043 95.372)">
      <rect id="矩形_2" data-name="矩形 2" width="5.438" height="3.263" rx="1.631" transform="translate(0 0)" fill="#fff"/>
    </g>
  </g>
</svg>
