<svg xmlns="http://www.w3.org/2000/svg" xmlns:xlink="http://www.w3.org/1999/xlink" width="642" height="336" viewBox="0 0 642 336">
  <defs>
    <clipPath id="clip-path">
      <rect id="背景" width="642" height="336" rx="2" fill="#fff"/>
    </clipPath>
  </defs>
  <g id="主页背景" clip-path="url(#clip-path)">
    <g id="数据时代" transform="translate(11.972 0)">
      <path id="路径_2" data-name="路径 2" d="M648.451,455.45c-18-7.033-10.765-59.018,4.485-83.427C709.649,280.962,663,224.008,614.13,217.935c-75.416-9.383-130.8,54.918-218.5,93.985-30.715,13.7-57.573,6.531-118.574,13.788-119.309,14.218-97.52,138.2-5.024,175.313,71.352,28.634,35.488,32.2,48.441,50.872,24.05,0,48.109-.126,72.151.458a.892.892,0,0,1,.951-.816c10.549,0,21.081.583,31.621.771a1,1,0,0,1,.942-1.292H594.574c39.668-20.982,87.912-3.83,111.236-18.488,37.919-23.727-1.337-55.133-57.358-77.076Z" transform="translate(-143.262 -217.011)" fill="#c2d3f9" opacity="0.46"/>
      <path id="路径_3" data-name="路径 3" d="M756,372.672H466.627a19.457,19.457,0,0,0-19.457,19.457V586.11a19.456,19.456,0,0,0,19.457,19.457H756a19.457,19.457,0,0,0,19.457-19.457V392.129A19.458,19.458,0,0,0,756,372.672Z" transform="translate(-258.671 -288.25)" fill="#a1bef7" opacity="0.87" style="mix-blend-mode: multiply;isolation: isolate"/>
      <path id="路径_4" data-name="路径 4" d="M722.29,338.384H437.248a17.932,17.932,0,0,0-17.932,17.932V553.347a17.932,17.932,0,0,0,17.932,17.932H722.29a17.932,17.932,0,0,0,17.932-17.932V356.316A17.932,17.932,0,0,0,722.29,338.384Z" transform="translate(-245.923 -272.558)" fill="#f5f8fe" stroke="#231815" stroke-miterlimit="10" stroke-width="1.108"/>
      <path id="路径_5" data-name="路径 5" d="M606.393,607.083H491.829a8.468,8.468,0,0,0-8.468,8.468v47.867a8.468,8.468,0,0,0,8.468,8.468H606.393a8.468,8.468,0,0,0,8.468-8.468V615.551a8.468,8.468,0,0,0-8.468-8.468Z" transform="translate(-275.233 -395.529)" fill="#8cace2" opacity="0.38" style="mix-blend-mode: multiply;isolation: isolate"/>
      <path id="路径_6" data-name="路径 6" d="M592.3,578.451H488.335a10.962,10.962,0,0,0-10.962,10.962v49.93a10.962,10.962,0,0,0,10.962,10.962H592.3a10.962,10.962,0,0,0,10.962-10.962v-49.93A10.962,10.962,0,0,0,592.3,578.451Z" transform="translate(-272.493 -382.426)" fill="#fff" stroke="#231815" stroke-miterlimit="10" stroke-width="1.456"/>
      <path id="路径_7" data-name="路径 7" d="M438.338,385.9H734.987" transform="translate(-254.628 -294.306)" fill="none" stroke="#231815" stroke-miterlimit="10" stroke-width="1.307"/>
      <path id="路径_8" data-name="路径 8" d="M594.36,436.353h-114.3a5.562,5.562,0,0,0-5.562,5.562v.009a5.562,5.562,0,0,0,5.562,5.562h114.3a5.562,5.562,0,0,0,5.562-5.562v-.009A5.562,5.562,0,0,0,594.36,436.353Z" transform="translate(-271.176 -317.394)" fill="#49e5db" stroke="#231815" stroke-miterlimit="10" stroke-width="1.456"/>
      <path id="路径_9" data-name="路径 9" d="M594.36,477.125h-114.3a5.562,5.562,0,0,0-5.562,5.562v.009a5.562,5.562,0,0,0,5.562,5.562h114.3a5.562,5.562,0,0,0,5.562-5.562v-.009A5.562,5.562,0,0,0,594.36,477.125Zm0,24.813h-114.3a5.562,5.562,0,0,0-5.562,5.562v.009a5.562,5.562,0,0,0,5.562,5.562h114.3a5.562,5.562,0,0,0,5.562-5.562V507.5A5.562,5.562,0,0,0,594.36,501.938Z" transform="translate(-271.176 -336.053)" fill="#2f54eb" stroke="#231815" stroke-miterlimit="10" stroke-width="1.456"/>
      <path id="路径_10" data-name="路径 10" d="M536.341,616.2h-33.1a5.158,5.158,0,0,0-5.158,5.158v28a5.158,5.158,0,0,0,5.158,5.158h33.1a5.158,5.158,0,0,0,5.158-5.158v-28A5.158,5.158,0,0,0,536.341,616.2Z" transform="translate(-281.97 -399.7)" fill="#49e5db" stroke="#231815" stroke-miterlimit="10" stroke-width="1.456"/>
      <path id="路径_11" data-name="路径 11" d="M558.852,619.025h50.056m-50.056,10.218h22.48m-22.48,10.729h50.056m-50.056,9.195h40.87m-93.851,6.217,8.289-12.039,10.944,4.943,19.78-16.945" transform="translate(-285.536 -400.995)" fill="none" stroke="#000" stroke-miterlimit="10" stroke-width="2.183"/>
      <path id="路径_12" data-name="路径 12" d="M533.5,640.6a5.033,5.033,0,1,0-5.033-5.032A5.032,5.032,0,0,0,533.5,640.6Z" transform="translate(-295.876 -406.263)" fill="#fff" stroke="#000" stroke-miterlimit="10" stroke-width="2.183"/>
      <path id="路径_13" data-name="路径 13" d="M740.438,364.277H419.415v-2.871c0-18.668,8.432-22.543,21.529-22.543H723.681a16.544,16.544,0,0,1,16.542,16.15Z" transform="translate(-245.968 -272.777)" fill="#2f54eb" stroke="#231815" stroke-miterlimit="10" stroke-width="1.456"/>
      <path id="路径_14" data-name="路径 14" d="M456.072,365.235a7.347,7.347,0,1,0-7.347-7.347A7.347,7.347,0,0,0,456.072,365.235Z" transform="translate(-259.382 -278.122)" fill="#f66"/>
      <path id="路径_15" data-name="路径 15" d="M497.373,365.235a7.347,7.347,0,1,0-7.347-7.347A7.347,7.347,0,0,0,497.373,365.235Z" transform="translate(-278.284 -278.122)" fill="#f5f8fe" stroke="#231815" stroke-miterlimit="10" stroke-width="1.456"/>
      <path id="路径_16" data-name="路径 16" d="M538.658,365.235a7.347,7.347,0,1,0-7.347-7.347A7.347,7.347,0,0,0,538.658,365.235Z" transform="translate(-297.178 -278.122)" fill="#f8dc29"/>
      <path id="路径_17" data-name="路径 17" d="M823.159,642.248A38.663,38.663,0,1,0,784.5,603.585,38.663,38.663,0,0,0,823.159,642.248Z" transform="translate(-413.049 -376.234)" fill="#49e5db" stroke="#231815" stroke-miterlimit="10" stroke-width="1.456"/>
      <path id="路径_18" data-name="路径 18" d="M783.766,600.618l37.677,1.516,28.536-26.409s-19.394-21.135-47.966-5.463c-18.856,10.316-18.246,30.357-18.246,30.357Z" transform="translate(-412.714 -376.03)" fill="#fff" stroke="#231815" stroke-miterlimit="10" stroke-width="1.456"/>
      <path id="路径_19" data-name="路径 19" d="M853.171,601.828v-37.9s13.967-2.126,28.536,11.536Zm67.154-32.178H908.34v11.985h11.985Zm0,48.5H908.34V630.13h11.985Z" transform="translate(-444.479 -375.724)" fill="#2f54eb" stroke="#231815" stroke-miterlimit="10" stroke-width="1.456"/>
      <path id="路径_20" data-name="路径 20" d="M966.879,619.769H954.895v11.985h11.985Z" transform="translate(-491.033 -401.335)" fill="#49e5db" stroke="#231815" stroke-miterlimit="10" stroke-width="1.456"/>
      <path id="路径_21" data-name="路径 21" d="M798.687,441.133h89.545M798.687,452.84h43.265m-43.265,11.707h89.545m-89.545,11.707h67.881" transform="translate(-419.544 -319.581)" fill="none" stroke="#231815" stroke-miterlimit="10" stroke-width="1.456"/>
      <path id="路径_22" data-name="路径 22" d="M1028.094,411.294H933.185a11.751,11.751,0,0,0-11.751,11.751v39.381a11.752,11.752,0,0,0,11.752,11.752h94.909a11.751,11.751,0,0,0,11.751-11.752V423.045A11.751,11.751,0,0,0,1028.094,411.294Z" transform="translate(-475.719 -305.926)" fill="#2f54eb" stroke="#231815" stroke-miterlimit="10" stroke-width="1.456"/>
      <path id="路径_23" data-name="路径 23" d="M392.924,637.815h-133.8A17.224,17.224,0,0,0,241.9,655.039V715.68A17.224,17.224,0,0,0,259.127,732.9h133.8a17.224,17.224,0,0,0,17.224-17.224V655.039A17.224,17.224,0,0,0,392.924,637.815Z" transform="translate(-164.729 -409.594)" fill="#2f54eb" stroke="#231815" stroke-miterlimit="10" stroke-width="1.753"/>
      <path id="路径_24" data-name="路径 24" d="M956.615,473.777l17.08-17.8,8.558,9.231,21.054-22.651,8.863,18.479,25.943-26.257" transform="translate(-491.82 -316.675)" fill="none" stroke="#fff" stroke-miterlimit="10" stroke-width="1.952"/>
      <path id="路径_25" data-name="路径 25" d="M1098.045,442.6a.529.529,0,0,1-.4-.628l1.7-7.921-7.894,1.794a.529.529,0,1,1-.233-1.032l8.711-1.992a.533.533,0,0,1,.484.144.5.5,0,0,1,.144.484l-1.875,8.737a.687.687,0,0,1-.144.26.556.556,0,0,1-.493.153Z" transform="translate(-553.224 -315.772)" fill="#fff"/>
      <path id="路径_26" data-name="路径 26" d="M954.581,691.569c-1.31.664-5.131.314-7.939-2.171s-6.217-.9-8.244.9-2.646,6.845.466,9.491,1.247,8.872-2.96,9.491-8.711,4.046-7.778,7.939,2.8,5.6,7.473,5.445,7.176,4.817,3.113,9.957-1.094,7.93.305,8.872,5.293,3.1,9.186.153,8.244-1.713,9.643,2.951,3.588,7.625,7.32,6.854,5.75-2.691,5.75-6.854,3.588-7.464,7.32-5.284,9.491,4.979,12.137,1.085.152-8.71-1.713-10.271-1.094-7.625,3.113-7.93,8.074-2.646,8.074-7.32-4.674-6.064-8.719-6.064-4.979-5.912-2.485-8.71,3.418-9.033,0-11.366-5.912-.3-9.491,1.866-7.32,2.027-8.405-2.951-2.691-8.558-7.177-8.074-6.226,2.691-6.226,6.692-1.83,4.835-2.763,5.3Z" transform="translate(-478.726 -428.686)" fill="#1890ff" stroke="#231815" stroke-miterlimit="10" stroke-width="1.819"/>
      <path id="路径_27" data-name="路径 27" d="M987.8,747.152a9.249,9.249,0,1,0-9.249-9.249A9.249,9.249,0,0,0,987.8,747.152Z" transform="translate(-501.858 -451.167)" fill="#fff" stroke="#231815" stroke-miterlimit="10" stroke-width="1.919"/>
      <path id="路径_29" data-name="路径 29" d="M829.6,259.536H757.235a11.527,11.527,0,0,0-11.527,11.527v.009A11.527,11.527,0,0,0,757.235,282.6H829.6a11.527,11.527,0,0,0,11.527-11.527v-.009A11.527,11.527,0,0,0,829.6,259.536Z" transform="translate(-395.298 -236.473)" fill="#49e5db" stroke="#231815" stroke-miterlimit="10" stroke-width="1.456"/>
      <path id="路径_30" data-name="路径 30" d="M787.059,270.767H714.693a11.527,11.527,0,0,0-11.527,11.527v.009a11.527,11.527,0,0,0,11.527,11.527h72.366A11.527,11.527,0,0,0,798.587,282.3v-.009A11.527,11.527,0,0,0,787.059,270.767Z" transform="translate(-375.828 -241.613)" fill="none" stroke="#231815" stroke-miterlimit="10" stroke-width="1.671"/>
      <path id="路径_31" data-name="路径 31" d="M299.4,675.411h-.009a4.736,4.736,0,0,0-4.736,4.736v54.165a4.736,4.736,0,0,0,4.736,4.736h.009a4.736,4.736,0,0,0,4.736-4.736V680.148A4.736,4.736,0,0,0,299.4,675.411Zm35.272,0h-.009a4.736,4.736,0,0,0-4.737,4.736v54.165a4.736,4.736,0,0,0,4.737,4.736h.009a4.736,4.736,0,0,0,4.737-4.736V680.148a4.736,4.736,0,0,0-4.736-4.736Z" transform="translate(-188.869 -426.8)" fill="#fff"/>
      <path id="路径_32" data-name="路径 32" d="M334.676,734.609h-.009a4.737,4.737,0,0,0-4.736,4.737V761.4a4.736,4.736,0,0,0,4.736,4.737h.009a4.736,4.736,0,0,0,4.737-4.736V739.346a4.736,4.736,0,0,0-4.737-4.736Zm-35.272,31.5a4.737,4.737,0,0,1-4.736-4.745V747.841a4.737,4.737,0,1,1,9.473.027V761.4A4.737,4.737,0,0,1,299.4,766.114Z" transform="translate(-188.877 -453.892)" fill="#49e5db"/>
      <path id="路径_33" data-name="路径 33" d="M489.28,675.411h-.009a4.736,4.736,0,0,0-4.736,4.736v54.165a4.736,4.736,0,0,0,4.736,4.736h.009a4.736,4.736,0,0,0,4.737-4.736V680.148A4.736,4.736,0,0,0,489.28,675.411Z" transform="translate(-275.771 -426.8)" fill="#fff"/>
      <path id="路径_34" data-name="路径 34" d="M489.28,764.186a4.747,4.747,0,0,1-4.745-4.736V735.076a4.741,4.741,0,1,1,9.482,0v24.373A4.74,4.74,0,0,1,489.28,764.186Z" transform="translate(-275.771 -451.937)" fill="#49e5db"/>
      <path id="路径_35" data-name="路径 35" d="M429.487,675.411h-.009a4.736,4.736,0,0,0-4.736,4.736v54.165a4.736,4.736,0,0,0,4.736,4.736h.009a4.736,4.736,0,0,0,4.736-4.736V680.148A4.736,4.736,0,0,0,429.487,675.411Z" transform="translate(-248.406 -426.8)" fill="#fff"/>
      <path id="路径_36" data-name="路径 36" d="M429.478,745.175a4.746,4.746,0,0,1-4.736-4.736v-46.9a4.741,4.741,0,1,1,9.482-.009v46.907A4.749,4.749,0,0,1,429.478,745.175Z" transform="translate(-248.406 -432.927)" fill="#49e5db"/>
      <path id="路径_37" data-name="路径 37" d="M254.014,506.752s-6.055-22.723,4.548-43.956,22.723-23.225,32.823-22.22,14.649,16.416,9.347,23.736-14.649,5.3-13.635-4.548,25.243-33.075,54.281-19.942" transform="translate(-169.484 -317.186)" fill="none" stroke="#231815" stroke-miterlimit="10" stroke-width="1.323"/>
      <path id="路径_38" data-name="路径 38" d="M215.677,545.354l18.767,1.857-6.728-17.591-4.692-1.749L212.1,539.533s1.346,4.772,3.579,5.822Z" transform="translate(-151.089 -359.277)" fill="#fff" stroke="#231815" stroke-miterlimit="10" stroke-width="1.456"/>
      <path id="路径_39" data-name="路径 39" d="M118.427,470.221l51.366,39.659s-3.687-3.283-1.947-5.472,6.226.547,6.226.547-3.929-3.274-1.857-5.562,5.571.538,5.571.538-2.288-3.382-.44-5.382,4.485-.44,4.485-.44S130.8,454.594,128.94,453.195s-9.724-6.333-15.25,1.417C107.42,463.287,118.427,470.221,118.427,470.221Z" transform="translate(-105.168 -323.803)" fill="#49e5db" stroke="#231815" stroke-miterlimit="10" stroke-width="1.456"/>
      <path id="路径_40" data-name="路径 40" d="M154.989,483.675l33.344,25.333M149.41,488.537l34.564,26.347" transform="translate(-122.399 -339.051)" fill="none" stroke="#231815" stroke-miterlimit="10" stroke-width="1.323"/>
      <path id="路径_41" data-name="路径 41" d="M127.844,470.019a5.445,5.445,0,1,0-5.445-5.445A5.445,5.445,0,0,0,127.844,470.019Z" transform="translate(-110.038 -327.817)" fill="#fff"/>
      <path id="路径_42" data-name="路径 42" d="M122.4,464.574a5.445,5.445,0,0,1,10.89,0m52.505,50.415,4.611-6.36" transform="translate(-110.038 -327.817)" fill="none" stroke="#231815" stroke-miterlimit="10" stroke-width="1.323"/>
    </g>
  </g>
  <path id="Icon_Steps-Finished" data-name="Icon/Steps-Finished" d="M4.686,27.314A16,16,0,0,1,27.314,4.686,16,16,0,0,1,4.686,27.314ZM5.629,5.629A14.667,14.667,0,1,0,30.668,16,14.668,14.668,0,0,0,5.629,5.629Zm7.1,16.046L9.2,17.751a.75.75,0,1,1,1.114-1L13.3,20.063l8.4-9.333a.75.75,0,1,1,1.115,1l-8.945,9.934a.746.746,0,0,1-.382.227.738.738,0,0,1-.2.028A.747.747,0,0,1,12.73,21.675Z" transform="translate(291 23)" fill="#1890ff"/>
</svg>